<mxfile host="65bd71144e">
    <diagram id="uF34GFSeDM6knXIIaCfM" name="ページ1">
        <mxGraphModel dx="1190" dy="546" grid="1" gridSize="10" guides="1" tooltips="1" connect="1" arrows="1" fold="1" page="1" pageScale="1" pageWidth="827" pageHeight="1169" math="0" shadow="0">
            <root>
                <mxCell id="0"/>
                <mxCell id="1" parent="0"/>
                <mxCell id="23" value="" style="rounded=0;whiteSpace=wrap;html=1;fillColor=#F9F9F9;fontColor=#000000;strokeColor=none;strokeWidth=3;glass=0;" vertex="1" parent="1">
                    <mxGeometry x="60" y="100" width="660" height="250" as="geometry"/>
                </mxCell>
                <mxCell id="2" value="" style="dashed=0;outlineConnect=0;html=1;align=center;labelPosition=center;verticalLabelPosition=bottom;verticalAlign=top;shape=mxgraph.weblogos.chrome" parent="1" vertex="1">
                    <mxGeometry x="617.6" y="120" width="74.8" height="75.4" as="geometry"/>
                </mxCell>
                <mxCell id="4" value="" style="dashed=0;outlineConnect=0;html=1;align=center;labelPosition=center;verticalLabelPosition=bottom;verticalAlign=top;shape=mxgraph.weblogos.youtube_2;fillColor=#FF2626;gradientColor=#B5171F" parent="1" vertex="1">
                    <mxGeometry x="619.41" y="260" width="71.17" height="50" as="geometry"/>
                </mxCell>
                <mxCell id="6" value="" style="shape=actor;whiteSpace=wrap;html=1;glass=0;fontSize=16;" parent="1" vertex="1">
                    <mxGeometry x="80" y="140" width="40" height="60" as="geometry"/>
                </mxCell>
                <mxCell id="7" value="google.com" style="text;html=1;align=center;verticalAlign=middle;resizable=0;points=[];autosize=1;strokeColor=none;fillColor=none;glass=0;fontSize=16;fontStyle=1;fontColor=#000000;" parent="1" vertex="1">
                    <mxGeometry x="180" y="120" width="110" height="30" as="geometry"/>
                </mxCell>
                <mxCell id="9" value="" style="aspect=fixed;perimeter=ellipsePerimeter;html=1;align=center;shadow=0;dashed=0;spacingTop=3;image;image=img/lib/active_directory/generic_server.svg;glass=0;fontSize=16;" parent="1" vertex="1">
                    <mxGeometry x="370" y="130" width="39.2" height="70" as="geometry"/>
                </mxCell>
                <mxCell id="11" value="DNS server" style="text;html=1;align=center;verticalAlign=middle;resizable=0;points=[];autosize=1;strokeColor=none;fillColor=none;glass=0;fontSize=16;fontColor=#000000;" parent="1" vertex="1">
                    <mxGeometry x="330" y="200" width="110" height="30" as="geometry"/>
                </mxCell>
                <mxCell id="13" value="Client" style="text;html=1;align=center;verticalAlign=middle;resizable=0;points=[];autosize=1;strokeColor=none;fillColor=none;glass=0;fontSize=16;fontColor=#FFFFFF;" parent="1" vertex="1">
                    <mxGeometry x="70" y="200" width="60" height="30" as="geometry"/>
                </mxCell>
                <mxCell id="14" value="" style="endArrow=block;html=1;fontSize=16;strokeWidth=3;endFill=1;fillColor=#60a917;strokeColor=#2D7600;" parent="1" edge="1">
                    <mxGeometry width="50" height="50" relative="1" as="geometry">
                        <mxPoint x="160" y="157.2" as="sourcePoint"/>
                        <mxPoint x="320" y="157" as="targetPoint"/>
                    </mxGeometry>
                </mxCell>
                <mxCell id="16" value="" style="endArrow=block;html=1;fontSize=16;strokeWidth=3;endFill=1;fillColor=#e51400;strokeColor=#B20000;" parent="1" edge="1">
                    <mxGeometry width="50" height="50" relative="1" as="geometry">
                        <mxPoint x="160" y="207.20000000000005" as="sourcePoint"/>
                        <mxPoint x="320" y="207" as="targetPoint"/>
                    </mxGeometry>
                </mxCell>
                <mxCell id="17" value="youtube.com" style="text;html=1;align=center;verticalAlign=middle;resizable=0;points=[];autosize=1;strokeColor=none;fillColor=none;glass=0;fontSize=16;fontStyle=1;fontColor=#000000;" parent="1" vertex="1">
                    <mxGeometry x="175" y="170" width="120" height="30" as="geometry"/>
                </mxCell>
                <mxCell id="18" value="" style="endArrow=block;html=1;fontSize=16;strokeWidth=3;endFill=1;fillColor=#60a917;strokeColor=#2D7600;" parent="1" edge="1">
                    <mxGeometry width="50" height="50" relative="1" as="geometry">
                        <mxPoint x="450" y="160" as="sourcePoint"/>
                        <mxPoint x="580" y="160" as="targetPoint"/>
                    </mxGeometry>
                </mxCell>
                <mxCell id="19" value="" style="endArrow=block;html=1;fontSize=16;strokeWidth=3;endFill=1;fillColor=#e51400;strokeColor=#B20000;rounded=0;" parent="1" edge="1">
                    <mxGeometry width="50" height="50" relative="1" as="geometry">
                        <mxPoint x="450" y="200.20000000000005" as="sourcePoint"/>
                        <mxPoint x="580" y="283" as="targetPoint"/>
                        <Array as="points">
                            <mxPoint x="460" y="200"/>
                            <mxPoint x="460" y="283"/>
                        </Array>
                    </mxGeometry>
                </mxCell>
                <mxCell id="24" value="100.43.30.4" style="text;html=1;align=center;verticalAlign=middle;resizable=0;points=[];autosize=1;strokeColor=none;fillColor=none;glass=0;fontSize=16;fontStyle=1;fontColor=#000000;" vertex="1" parent="1">
                    <mxGeometry x="455" y="250" width="110" height="30" as="geometry"/>
                </mxCell>
                <mxCell id="25" value="123.12.33.45" style="text;html=1;align=center;verticalAlign=middle;resizable=0;points=[];autosize=1;strokeColor=none;fillColor=none;glass=0;fontSize=16;fontStyle=1;fontColor=#000000;" vertex="1" parent="1">
                    <mxGeometry x="445" y="120" width="120" height="30" as="geometry"/>
                </mxCell>
                <mxCell id="27" value="Google" style="text;html=1;align=center;verticalAlign=middle;resizable=0;points=[];autosize=1;strokeColor=none;fillColor=none;glass=0;fontSize=16;fontStyle=1;fontColor=#000000;" vertex="1" parent="1">
                    <mxGeometry x="615" y="195.4" width="80" height="30" as="geometry"/>
                </mxCell>
                <mxCell id="28" value="YouTube" style="text;html=1;align=center;verticalAlign=middle;resizable=0;points=[];autosize=1;strokeColor=none;fillColor=none;glass=0;fontSize=16;fontStyle=1;fontColor=#000000;" vertex="1" parent="1">
                    <mxGeometry x="609.99" y="310" width="90" height="30" as="geometry"/>
                </mxCell>
            </root>
        </mxGraphModel>
    </diagram>
</mxfile>